<svg width="540" height="282" viewBox="0 0 540 282" fill="none" xmlns="http://www.w3.org/2000/svg">
<path d="M270.5 2.5C356.228 2.5 433.959 17.7074 490.353 42.3965C518.545 54.7394 541.517 69.5019 557.476 86.0205C573.446 102.551 582.5 120.965 582.5 140.5C582.5 160.035 573.446 178.449 557.476 194.979C541.517 211.498 518.545 226.261 490.353 238.604C433.959 263.293 356.228 278.5 270.5 278.5C211.195 278.5 155.738 271.219 108.529 258.571C104.753 262.891 99.9218 267.4 94.249 270.439C87.0012 274.323 79.4622 276.328 73.7754 277.367C70.9234 277.888 68.5152 278.171 66.8115 278.323C65.9592 278.399 65.2817 278.443 64.8115 278.468C64.5767 278.48 64.3933 278.488 64.2656 278.493C64.202 278.495 64.1517 278.497 64.1162 278.498C64.0985 278.499 64.0837 278.499 64.0732 278.499H64.0547C64.0539 278.493 64.0505 278.369 64 276L64.0537 278.499L58.8545 278.61L62.0146 274.48L62.0156 274.479L62.0332 274.456C62.0465 274.439 62.0671 274.412 62.0938 274.377C62.1471 274.307 62.2267 274.202 62.3291 274.066C62.534 273.795 62.8312 273.398 63.1973 272.904C63.9302 271.915 64.9376 270.537 66.0332 268.98C68.2522 265.828 70.7365 262.081 72.0977 259.354L72.2539 259.031C73.5825 256.197 74.5714 251.857 75.2139 248.276C40.2652 235.905 11.3967 220.237 -8.88574 202.238C-29.5526 183.898 -41.5 162.948 -41.5 140.5C-41.5 120.965 -32.446 102.551 -16.4756 86.0205C-0.516837 69.5019 22.4547 54.7394 50.6475 42.3965C107.041 17.7074 184.772 2.5 270.5 2.5Z" fill="white" stroke="black" stroke-width="5"/>
</svg>
